HIERARCHY
ROOT Hips
{
	OFFSET 0.000000 0.000000 0.000000
	CHANNELS 6 Xposition Yposition Zposition Zrotation Yrotation Xrotation 
	JOINT LHipJoint
	{
		OFFSET 0.000000 0.000000 0.000000
		CHANNELS 3 Zrotation Yrotation Xrotation
		JOINT LeftUpLeg
		{
			OFFSET 1.363060 -1.794630 0.839290
			CHANNELS 3 Zrotation Yrotation Xrotation
			JOINT LeftLeg
			{
				OFFSET 2.448110 -6.726130 0.000000
				CHANNELS 3 Zrotation Yrotation Xrotation
				JOINT LeftFoot
				{
					OFFSET 2.562200 -7.039590 0.000000
					CHANNELS 3 Zrotation Yrotation Xrotation
					JOINT LeftToeBase
					{
						OFFSET 0.157640 -0.433110 2.322550
						CHANNELS 3 Zrotation Yrotation Xrotation
						End Site
						{
							OFFSET 0.000000 0.000000 0.000000
						}
					}
				}
			}
		}
	}
	JOINT RHipJoint
	{
		OFFSET 0.000000 0.000000 0.000000
		CHANNELS 3 Zrotation Yrotation Xrotation
		JOINT RightUpLeg
		{
			OFFSET -1.305520 -1.794630 0.839290
			CHANNELS 3 Zrotation Yrotation Xrotation
			JOINT RightLeg
			{
				OFFSET -2.542530 -6.985550 0.000000
				CHANNELS 3 Zrotation Yrotation Xrotation
				JOINT RightFoot
				{
					OFFSET -2.568260 -7.056230 0.000000
					CHANNELS 3 Zrotation Yrotation Xrotation
					JOINT RightToeBase
					{
						OFFSET -0.164730 -0.452590 2.363150
						CHANNELS 3 Zrotation Yrotation Xrotation
						End Site
						{
							OFFSET 0.000000 0.000000 0.000000
						}
					}
				}
			}
		}
	}
	JOINT LowerBack
	{
		OFFSET 0.000000 0.000000 0.000000
		CHANNELS 3 Zrotation Yrotation Xrotation
		JOINT Spine
		{
			OFFSET 0.028270 2.035590 -0.193380
			CHANNELS 3 Zrotation Yrotation Xrotation
			JOINT Spine1
			{
				OFFSET 0.056720 2.048850 -0.042750
				CHANNELS 3 Zrotation Yrotation Xrotation
				JOINT Neck
				{
					OFFSET 0.000000 0.000000 0.000000
					CHANNELS 3 Zrotation Yrotation Xrotation
					JOINT Neck1
					{
						OFFSET -0.054170 1.746240 0.172020
						CHANNELS 3 Zrotation Yrotation Xrotation
						JOINT Head
						{
							OFFSET 0.104070 1.761360 -0.123970
							CHANNELS 3 Zrotation Yrotation Xrotation
							End Site
							{
								OFFSET 0.000000 0.000000 0.000000
							}
						}
					}
				}
				JOINT LeftShoulder
				{
					OFFSET 0.000000 0.000000 0.000000
					CHANNELS 3 Zrotation Yrotation Xrotation
					JOINT LeftArm
					{
						OFFSET 3.362410 1.200890 -0.311210
						CHANNELS 3 Zrotation Yrotation Xrotation
						JOINT LeftForeArm
						{
							OFFSET 4.983000 -0.000000 -0.000000
							CHANNELS 3 Zrotation Yrotation Xrotation
							JOINT LeftHand
							{
								OFFSET 3.483560 -0.000000 -0.000000
								CHANNELS 3 Zrotation Yrotation Xrotation
								JOINT LeftFingerBase
								{
									OFFSET 0.000000 0.000000 0.000000
									CHANNELS 3 Zrotation Yrotation Xrotation
									JOINT LeftHandIndex1
									{
										OFFSET 0.715260 -0.000000 -0.000000
										CHANNELS 3 Zrotation Yrotation Xrotation
										End Site
										{
											OFFSET 0.000000 0.000000 0.000000
										}
									}
								}
								JOINT LThumb
								{
									OFFSET 0.000000 0.000000 0.000000
									CHANNELS 3 Zrotation Yrotation Xrotation
									End Site
									{
										OFFSET 0.000000 0.000000 0.000000
									}
								}
							}
						}
					}
				}
				JOINT RightShoulder
				{
					OFFSET 0.000000 0.000000 0.000000
					CHANNELS 3 Zrotation Yrotation Xrotation
					JOINT RightArm
					{
						OFFSET -3.136600 1.374050 -0.404650
						CHANNELS 3 Zrotation Yrotation Xrotation
						JOINT RightForeArm
						{
							OFFSET -5.241900 -0.000000 -0.000000
							CHANNELS 3 Zrotation Yrotation Xrotation
							JOINT RightHand
							{
								OFFSET -3.444170 -0.000000 -0.000000
								CHANNELS 3 Zrotation Yrotation Xrotation
								JOINT RightFingerBase
								{
									OFFSET 0.000000 0.000000 0.000000
									CHANNELS 3 Zrotation Yrotation Xrotation
									JOINT RightHandIndex1
									{
										OFFSET -0.622530 -0.000000 -0.000000
										CHANNELS 3 Zrotation Yrotation Xrotation
										End Site
										{
											OFFSET 0.000000 0.000000 0.000000
										}
									}
								}
								JOINT RThumb
								{
									OFFSET 0.000000 0.000000 0.000000
									CHANNELS 3 Zrotation Yrotation Xrotation
									End Site
									{
										OFFSET 0.000000 0.000000 0.000000
									}
								}
							}
						}
					}
				}
			}
		}
	}
}
MOTION
Frames: 5
Frame Time: 0.008333
-13.423566 17.021255 -0.868312 157.745431 89.456986 169.169107 -11.497238 3.543209 -0.833397 -5.010923 7.421793 -5.383694 -0.682508 2.017529 35.073087 0.473948 0.722797 5.401640 0.079200 -0.000001 -80.503800 8.379597 -0.897618 3.255339 10.245943 5.827798 -30.470677 2.843829 0.267871 6.608273 -0.170281 -2.284336 7.695354 -1.420900 0.000000 -30.731600 3.336023 -2.814746 -2.228161 -0.178236 -3.206569 -3.373682 -7.813421 -3.283343 0.279440 10.190558 -4.986154 -5.333060 -4.850628 -0.381358 0.567520 0.000000 0.000000 0.000000 -5.303821 2.383955 2.177052 -59.116443 -15.376358 12.406730 -3.159869 -36.058007 -0.010988 5.747927 0.149757 0.002187 -0.125681 0.128056 0.000000 0.000000 0.000000 0.000000 0.000000 0.000000 0.000000 21.493755 -4.264874 0.885074 69.890843 0.371829 -7.112632 3.551356 16.299390 0.007174 0.299125 4.874145 0.010016 0.073540 -0.056843 -0.000000 0.000000 0.000000 0.000000 0.000000 0.000000 0.000000 
-13.253900 17.043913 -0.852510 -165.649954 89.553895 -154.346850 -11.773856 3.528426 -0.922032 -4.301021 8.241754 -6.808928 -0.447473 2.212684 37.889582 0.626946 1.184727 7.962055 0.132001 -0.000000 -79.438800 8.218562 -1.020210 3.231304 10.863885 5.941090 -29.957264 2.883124 0.220932 7.220534 -0.151589 -2.146789 7.383302 -1.364200 -0.000000 -29.829500 3.773972 -2.711539 -2.212432 -0.153254 -3.130911 -3.390305 -7.772991 -3.196294 0.257588 10.061528 -4.865438 -5.318488 -4.836829 -0.380631 0.574512 0.000000 0.000000 0.000000 -5.445277 2.627511 2.117540 -59.794507 -14.883455 12.172451 -3.133797 -35.776997 -0.010788 5.720398 0.171481 0.003351 -0.121811 0.125576 0.000000 0.000000 0.000000 0.000000 0.000000 0.000000 0.000000 21.258625 -4.071859 0.883113 69.981026 0.535184 -7.216754 3.584005 16.128941 0.007203 0.299324 4.798602 0.009819 0.074936 -0.057286 -0.000000 0.000000 0.000000 0.000000 0.000000 0.000000 0.000000 
-13.087962 17.066883 -0.835491 -145.117997 89.299571 -133.944590 -12.035330 3.445345 -1.007041 -3.653570 8.934158 -8.276155 -0.170180 2.351964 40.724075 0.821856 1.928633 10.381751 0.281700 -0.000000 -76.793900 8.015954 -1.142225 3.205839 11.457000 5.973075 -29.364219 2.944447 0.191778 7.719015 -0.129552 -1.993645 6.911611 -1.297500 0.000000 -28.943800 4.135543 -2.662377 -2.172208 -0.089178 -3.104412 -3.399120 -7.724519 -3.168220 0.245626 9.970508 -4.749338 -5.304072 -4.817223 -0.379407 0.581117 0.000000 0.000000 0.000000 -5.541952 2.802951 2.066085 -60.499021 -14.394277 11.929123 -3.114573 -35.433764 -0.010605 5.677706 0.211903 0.005520 -0.118507 0.123295 0.000000 0.000000 0.000000 0.000000 0.000000 0.000000 0.000000 21.041690 -3.903615 0.881484 70.065100 0.732652 -7.244572 3.604298 16.014956 0.007187 0.300263 4.728084 0.009722 0.075770 -0.057604 -0.000000 0.000000 0.000000 0.000000 0.000000 0.000000 0.000000 
-12.925830 17.089834 -0.817244 -136.325209 88.991386 -125.279301 -12.244341 3.311187 -1.084264 -3.108703 9.487430 -9.765146 0.084415 2.463968 43.552913 1.043621 2.963748 12.502294 0.565500 -0.000001 -72.695700 7.857490 -1.255917 3.170149 12.037119 5.936362 -28.697888 3.017795 0.177151 8.078959 -0.117858 -1.859425 6.332813 -1.231000 0.000000 -28.050600 4.467935 -2.614830 -2.111365 -0.017413 -3.077542 -3.400786 -7.680449 -3.143308 0.225366 9.903045 -4.631278 -5.283954 -4.797589 -0.378218 0.588649 0.000000 0.000000 0.000000 -5.594951 2.935990 2.029831 -61.202083 -13.893671 11.686947 -3.097473 -35.038459 -0.010431 5.619822 0.270263 0.008487 -0.115095 0.121050 0.000000 0.000000 0.000000 0.000000 0.000000 0.000000 0.000000 20.845741 -3.738838 0.878076 70.151261 0.952759 -7.217104 3.617665 15.971583 0.007168 0.308818 4.666639 0.009925 0.076320 -0.058049 -0.000000 0.000000 0.000000 0.000000 0.000000 0.000000 0.000000 
-12.767367 17.112643 -0.797842 -133.032681 88.691424 -122.106579 -12.415974 3.149888 -1.152454 -2.691632 9.894545 -11.275885 0.300799 2.567298 46.346845 1.279798 4.282069 14.197625 0.999699 -0.000000 -67.490300 7.723521 -1.355050 3.120064 12.574694 5.834525 -27.953963 3.090713 0.182715 8.282699 -0.115418 -1.759610 5.699368 -1.172601 -0.000000 -27.136400 4.745438 -2.570845 -2.034761 0.040863 -3.049497 -3.398027 -7.641344 -3.117194 0.201118 9.857344 -4.522583 -5.263951 -4.779233 -0.377110 0.595774 0.000000 0.000000 0.000000 -5.613953 3.033833 2.003130 -61.884763 -13.394279 11.462546 -3.081971 -34.598116 -0.010249 5.546092 0.344365 0.012054 -0.111632 0.118745 0.000000 0.000000 0.000000 0.000000 0.000000 0.000000 0.000000 20.679962 -3.585623 0.875095 70.235621 1.200300 -7.113842 3.624711 15.999643 0.007155 0.318033 4.623000 0.010228 0.076632 -0.058687 -0.000000 0.000000 0.000000 0.000000 0.000000 0.000000 0.000000 
